<?xml version="1.0" encoding="utf-8"?>
<!-- Generator: Adobe Illustrator 21.0.0, SVG Export Plug-In . SVG Version: 6.00 Build 0)  -->
<svg version="1.1" id="Capa_1" xmlns="http://www.w3.org/2000/svg" xmlns:xlink="http://www.w3.org/1999/xlink" x="0px" y="0px"
	 viewBox="518 -287.6 1107.5 693.6" style="enable-background:new 518 -287.6 1107.5 693.6;" xml:space="preserve">
<style type="text/css">
	.st0{fill:none;stroke:#000000;stroke-width:0.25;}
	.st1{fill:none;stroke:#211915;stroke-width:0.25;stroke-miterlimit:10;}
	.st2{fill:none;stroke:#BE0411;stroke-width:0.25;stroke-miterlimit:10;}
	.st3{fill:none;stroke:#211915;stroke-width:0.25;stroke-linecap:round;stroke-linejoin:round;stroke-miterlimit:10;}
</style>
<g transform="translate(22.5000185, 22.5000185) ">
	<polygon class="st0" points="513.5,-292.1 582.9,-292.1 582.9,-283.6 652.4,-283.6 652.4,-292.1 697.8,-292.1 697.8,-283.6 
		743.1,-283.6 743.1,-292.1 788.5,-292.1 788.5,-283.6 857.9,-283.6 857.9,-292.1 927.4,-292.1 927.4,-221.2 918.9,-221.2 
		918.9,-150.3 927.4,-150.3 927.4,-105 918.9,-105 918.9,-34.1 927.4,-34.1 927.4,36.7 857.9,36.7 857.9,28.2 788.5,28.2 
		788.5,36.7 743.1,36.7 743.1,28.2 697.8,28.2 697.8,36.7 652.4,36.7 652.4,28.2 582.9,28.2 582.9,36.7 513.5,36.7 513.5,-34.1 
		522,-34.1 522,-105 513.5,-105 513.5,-150.3 522,-150.3 522,-221.2 513.5,-221.2 	"/>
</g>
<g transform="translate(539.8232785, 22.5000185) ">
	<polygon class="st0" points="410,-292.1 479.5,-292.1 479.5,-283.6 548.9,-283.6 548.9,-292.1 594.3,-292.1 594.3,-283.6 
		639.6,-283.6 639.6,-292.1 685,-292.1 685,-283.6 754.4,-283.6 754.4,-292.1 823.9,-292.1 823.9,-221.2 815.4,-221.2 815.4,-150.3 
		823.9,-150.3 823.9,-105 815.4,-105 815.4,-34.1 823.9,-34.1 823.9,36.7 754.4,36.7 754.4,28.2 685,28.2 685,36.7 639.6,36.7 
		639.6,28.2 594.3,28.2 594.3,36.7 548.9,36.7 548.9,28.2 479.5,28.2 479.5,36.7 410,36.7 410,-34.1 418.5,-34.1 418.5,-105 
		410,-105 410,-150.3 418.5,-150.3 418.5,-221.2 410,-221.2 	"/>
</g>
<g transform="translate(1057.1465385000001, 22.5000185) ">
	<polygon class="st0" points="315.1,-292.1 355.3,-292.1 355.3,-283.6 404.1,-283.6 404.1,-292.1 452.8,-292.1 452.8,-283.6 
		501.6,-283.6 501.6,-292.1 541.8,-292.1 541.8,-221.2 550.3,-221.2 550.3,-150.3 541.8,-150.3 541.8,-105 550.3,-105 550.3,-34.1 
		541.8,-34.1 541.8,36.7 501.6,36.7 501.6,28.2 452.8,28.2 452.8,36.7 404.1,36.7 404.1,28.2 355.3,28.2 355.3,36.7 315.1,36.7 
		315.1,-34.1 306.6,-34.1 306.6,-105 315.1,-105 315.1,-150.3 306.6,-150.3 306.6,-221.2 315.1,-221.2 	"/>
</g>
<g transform="translate(1057.1465385000001, 433.5239785) ">
	<polygon class="st0" points="315.1,-374.3 355.3,-374.3 355.3,-365.8 404.1,-365.8 404.1,-374.3 452.8,-374.3 452.8,-365.8 
		501.6,-365.8 501.6,-374.3 541.8,-374.3 541.8,-303.4 550.3,-303.4 550.3,-232.6 541.8,-232.6 541.8,-187.2 550.3,-187.2 
		550.3,-116.3 541.8,-116.3 541.8,-45.5 501.6,-45.5 501.6,-54 452.8,-54 452.8,-45.5 404.1,-45.5 404.1,-54 355.3,-54 355.3,-45.5 
		315.1,-45.5 315.1,-116.3 306.6,-116.3 306.6,-187.2 315.1,-187.2 315.1,-232.6 306.6,-232.6 306.6,-303.4 315.1,-303.4 	"/>
</g>
<g transform="translate(22.5000185, 433.5239785) ">
	<polygon class="st0" points="522,-365.8 582.9,-365.8 582.9,-374.3 652.4,-374.3 652.4,-365.8 697.8,-365.8 697.8,-374.3 
		743.1,-374.3 743.1,-365.8 788.5,-365.8 788.5,-374.3 857.9,-374.3 857.9,-365.8 918.9,-365.8 918.9,-325.5 927.4,-325.5 
		927.4,-276.8 918.9,-276.8 918.9,-228 927.4,-228 927.4,-179.3 918.9,-179.3 918.9,-139 857.9,-139 857.9,-130.5 788.5,-130.5 
		788.5,-139 743.1,-139 743.1,-130.5 697.8,-130.5 697.8,-139 652.4,-139 652.4,-130.5 582.9,-130.5 582.9,-139 522,-139 
		522,-179.3 513.5,-179.3 513.5,-228 522,-228 522,-276.8 513.5,-276.8 513.5,-325.5 522,-325.5 	"/>
</g>
<g transform="translate(539.8232785, 433.5239785) ">
	<polygon class="st0" points="418.5,-365.8 479.5,-365.8 479.5,-374.3 548.9,-374.3 548.9,-365.8 594.3,-365.8 594.3,-374.3 
		639.6,-374.3 639.6,-365.8 685,-365.8 685,-374.3 754.4,-374.3 754.4,-365.8 815.4,-365.8 815.4,-325.5 823.9,-325.5 823.9,-276.8 
		815.4,-276.8 815.4,-228 823.9,-228 823.9,-179.3 815.4,-179.3 815.4,-139 754.4,-139 754.4,-130.5 685,-130.5 685,-139 
		639.6,-139 639.6,-130.5 594.3,-130.5 594.3,-139 548.9,-139 548.9,-130.5 479.5,-130.5 479.5,-139 418.5,-139 418.5,-179.3 
		410,-179.3 410,-228 418.5,-228 418.5,-276.8 410,-276.8 410,-325.5 418.5,-325.5 	"/>
</g>
<g>
	<path class="st1" d="M633.1-130.9"/>
	<path class="st1" d="M641.6-130.9"/>
	<path class="st1" d="M677.8-122.4h3.8v-8.5v-12.3c0-3.1-2.5-5.7-5.7-5.7h-37.2c-3.1,0-5.7,2.5-5.7,5.7v12.3v8.5h3.8"/>
	<polyline class="st1" points="657.8,-122.4 661.6,-122.4 661.6,-130.9 673.1,-130.9 673.1,-122.4 676.8,-122.4 	"/>
	<polyline class="st1" points="637.8,-122.4 641.6,-122.4 641.6,-130.9 653.1,-130.9 653.1,-122.4 656.8,-122.4 	"/>
</g>
<g>
	<path class="st1" d="M633.1-86.9"/>
	<path class="st1" d="M641.6-86.9"/>
	<path class="st1" d="M677.8-78.4h3.8v-8.5v-12.3c0-3.1-2.5-5.7-5.7-5.7h-37.2c-3.1,0-5.7,2.5-5.7,5.7v12.3v8.5h3.8"/>
	<polyline class="st1" points="657.8,-78.4 661.6,-78.4 661.6,-86.9 673.1,-86.9 673.1,-78.4 676.8,-78.4 	"/>
	<polyline class="st1" points="637.8,-78.4 641.6,-78.4 641.6,-86.9 653.1,-86.9 653.1,-78.4 656.8,-78.4 	"/>
</g>
<g>
	<path class="st1" d="M633.1-43.1"/>
	<path class="st1" d="M641.6-43.1"/>
	<path class="st1" d="M677.8-34.6h3.8v-8.5v-12.3c0-3.1-2.5-5.7-5.7-5.7h-37.2c-3.1,0-5.7,2.5-5.7,5.7v12.3v8.5h3.8"/>
	<polyline class="st1" points="657.8,-34.6 661.6,-34.6 661.6,-43.1 673.1,-43.1 673.1,-34.6 676.8,-34.6 	"/>
	<polyline class="st1" points="637.8,-34.6 641.6,-34.6 641.6,-43.1 653.1,-43.1 653.1,-34.6 656.8,-34.6 	"/>
</g>
<g>
	<path class="st1" d="M633.1-3.1"/>
	<path class="st1" d="M641.6-3.1"/>
	<path class="st1" d="M677.8,5.4h3.8v-8.5v-12.3c0-3.1-2.5-5.7-5.7-5.7h-37.2c-3.1,0-5.7,2.5-5.7,5.7v12.3v8.5h3.8"/>
	<polyline class="st1" points="657.8,5.4 661.6,5.4 661.6,-3.1 673.1,-3.1 673.1,5.4 676.8,5.4 	"/>
	<polyline class="st1" points="637.8,5.4 641.6,5.4 641.6,-3.1 653.1,-3.1 653.1,5.4 656.8,5.4 	"/>
</g>
<rect x="750.7" y="-221.6" class="st2" width="155.9" height="240.9"/>
<g>
	<rect x="582.3" y="-175" class="st2" width="151.1" height="194.3"/>
	<circle class="st3" cx="632.7" cy="-167.8" r="4.6"/>
	<circle class="st3" cx="711.8" cy="-167.8" r="4.6"/>
	<circle class="st3" cx="589.5" cy="-23.9" r="4.5"/>
	<circle class="st3" cx="726.2" cy="-20.3" r="4.6"/>
</g>
<g>
	<path class="st2" d="M820.3-53.4v-2.9c0-1.1,0.3-1.9,1-2.5c0.7-0.6,1.6-1,2.7-1h0.3c1.7,0,2.8,0.6,3.4,1.9c0.2-0.7,0.7-1.2,1.3-1.6
		c0.6-0.4,1.3-0.6,2.2-0.6h1.1c1.2,0,2.1,0.3,2.8,1c0.7,0.7,1,1.5,1,2.6v3H820.3z M827.5-54.3v-1.9c0-0.8-0.3-1.4-0.8-1.9
		c-0.5-0.5-1.2-0.7-2.2-0.7H824c-1,0-1.7,0.2-2.2,0.7c-0.5,0.5-0.8,1.1-0.8,1.9v1.9H827.5z M835.4-54.3v-2.2c0-0.8-0.3-1.4-0.8-1.9
		c-0.5-0.5-1.2-0.7-2.2-0.7h-1.3c-1,0-1.7,0.2-2.2,0.7c-0.5,0.5-0.8,1.1-0.8,1.9v2.2H835.4z"/>
	<path class="st2" d="M829.2-66.2c0,0.2,0,0.4,0,0.6v2h6.9v0.9h-15.9v-3c0-1.1,0.3-1.9,1-2.5c0.7-0.6,1.6-1,2.7-1h1.5
		c0.9,0,1.6,0.2,2.2,0.6c0.6,0.4,1,0.9,1.3,1.6l7.2-2.8v1L829.2-66.2z M828.5-63.6v-2c0-0.8-0.3-1.4-0.8-1.9
		c-0.5-0.5-1.2-0.7-2.2-0.7H824c-1,0-1.7,0.2-2.2,0.7c-0.5,0.5-0.8,1.1-0.8,1.9v2H828.5z"/>
	<path class="st2" d="M836.2-71.9h-15.9v-5.2h0.8v4.3h6.4v-3.6h0.7v3.6h7.2v-4.4h0.8V-71.9z"/>
	<path class="st2" d="M836.2-86v1l-4.5,0.9v3.9l4.5,0.9v0.9l-15.9-3.4v-0.9L836.2-86z M830.9-80.4V-84l-8.8,1.8L830.9-80.4z"/>
	<path class="st2" d="M820.3-87.8v-3c0-1.1,0.3-1.9,1-2.5c0.7-0.6,1.6-1,2.7-1h8.4c1.2,0,2.1,0.3,2.8,1c0.7,0.7,1,1.5,1,2.6v2.9
		H820.3z M835.4-88.7v-2c0-0.8-0.3-1.4-0.8-1.9c-0.5-0.5-1.2-0.7-2.2-0.7H824c-1,0-1.7,0.2-2.2,0.7c-0.5,0.5-0.8,1.1-0.8,1.9v2
		H835.4z"/>
	<path class="st2" d="M820.3-97.2v-2.9c0-1.1,0.3-1.9,1-2.5c0.7-0.6,1.6-1,2.7-1h0.3c1.7,0,2.8,0.6,3.4,1.9c0.2-0.7,0.7-1.2,1.3-1.6
		c0.6-0.4,1.3-0.6,2.2-0.6h1.1c1.2,0,2.1,0.3,2.8,1c0.7,0.7,1,1.5,1,2.6v3H820.3z M827.5-98.1v-1.9c0-0.8-0.3-1.4-0.8-1.9
		c-0.5-0.5-1.2-0.7-2.2-0.7H824c-1,0-1.7,0.2-2.2,0.7c-0.5,0.5-0.8,1.1-0.8,1.9v1.9H827.5z M835.4-98.1v-2.2c0-0.8-0.3-1.4-0.8-1.9
		c-0.5-0.5-1.2-0.7-2.2-0.7h-1.3c-1,0-1.7,0.2-2.2,0.7c-0.5,0.5-0.8,1.1-0.8,1.9v2.2H835.4z"/>
	<path class="st2" d="M823.6-106.3c-1.1,0-1.9-0.3-2.6-0.9c-0.7-0.6-1-1.4-1-2.4c0-1,0.3-1.7,1-2.4c0.6-0.6,1.5-0.9,2.5-0.9h9.3
		c1.1,0,1.9,0.3,2.6,0.9c0.7,0.6,1,1.4,1,2.4c0,1-0.3,1.7-1,2.4c-0.6,0.6-1.5,0.9-2.5,0.9H823.6z M832.8-107.2c0.8,0,1.5-0.2,2-0.7
		c0.5-0.4,0.7-1,0.7-1.7c0-0.7-0.2-1.3-0.7-1.7c-0.5-0.4-1.2-0.7-2-0.7h-9.2c-0.8,0-1.5,0.2-2,0.7c-0.5,0.4-0.7,1-0.7,1.7
		c0,0.7,0.2,1.3,0.7,1.7c0.5,0.4,1.2,0.7,2,0.7H832.8z"/>
	<path class="st2" d="M836.2-122.1v1l-4.5,0.9v3.9l4.5,0.9v0.9l-15.9-3.4v-0.9L836.2-122.1z M830.9-116.5v-3.6l-8.8,1.8L830.9-116.5
		z"/>
	<path class="st2" d="M829.2-127.4c0,0.2,0,0.4,0,0.6v2h6.9v0.9h-15.9v-3c0-1.1,0.3-1.9,1-2.5c0.7-0.6,1.6-1,2.7-1h1.5
		c0.9,0,1.6,0.2,2.2,0.6c0.6,0.4,1,0.9,1.3,1.6l7.2-2.8v1L829.2-127.4z M828.5-124.8v-2c0-0.8-0.3-1.4-0.8-1.9
		c-0.5-0.5-1.2-0.7-2.2-0.7H824c-1,0-1.7,0.2-2.2,0.7c-0.5,0.5-0.8,1.1-0.8,1.9v2H828.5z"/>
	<path class="st2" d="M820.3-133.1v-3c0-1.1,0.3-1.9,1-2.5c0.7-0.6,1.6-1,2.7-1h8.4c1.2,0,2.1,0.3,2.8,1c0.7,0.7,1,1.5,1,2.6v2.9
		H820.3z M835.4-134v-2c0-0.8-0.3-1.4-0.8-1.9c-0.5-0.5-1.2-0.7-2.2-0.7H824c-1,0-1.7,0.2-2.2,0.7c-0.5,0.5-0.8,1.1-0.8,1.9v2H835.4
		z"/>
</g>
<g>
	<g>
		<rect x="597.1" y="-247.2" class="st1" width="8.2" height="8.2"/>
		<rect x="576.7" y="-247.2" class="st1" width="8.2" height="8.2"/>
		<rect x="617.5" y="-247.2" class="st1" width="8.2" height="8.2"/>
	</g>
	<g>
		<rect x="880.5" y="-247.2" class="st1" width="8.2" height="8.2"/>
		<rect x="860.1" y="-247.2" class="st1" width="8.2" height="8.2"/>
		<rect x="900.9" y="-247.2" class="st1" width="8.2" height="8.2"/>
	</g>
</g>
<g>
	<g>
		<rect x="597.1" y="30.5" class="st1" width="8.2" height="8.2"/>
		<rect x="576.7" y="30.5" class="st1" width="8.2" height="8.2"/>
		<rect x="617.5" y="30.5" class="st1" width="8.2" height="8.2"/>
	</g>
	<g>
		<rect x="880.5" y="30.5" class="st1" width="8.2" height="8.2"/>
		<rect x="860.1" y="30.5" class="st1" width="8.2" height="8.2"/>
		<rect x="900.9" y="30.5" class="st1" width="8.2" height="8.2"/>
	</g>
</g>
</svg>
